# xmcd
#
# Track frame offsets: 
#        182
#        12380
#        25047
#        37302
#        51145
#        61722
#        75397
#        87027
#        97840
#        112915
#        125470
#        139575
#        162487
#        183250
#        195630
#        210095
#
# Disc length: 3004 seconds
#
# Revision: 9
# Processed by: cddbd v1.5.2PL0 Copyright (c) Steve Scherf et al.
# Submitted via: ExactAudioCopy v1.0b3
#
DISCID=be0bba10
DTITLE=Various Artist - More Slide Guitar Classics
DYEAR=1998
DGENRE=Blues
TTITLE0=Muddy Waters - I Can't Be Satisfied
TTITLE1=Elmore James - The Sky Is Crying
TTITLE2=Hound Dog Tayler and The Houserockers - Take Five
TTITLE3=Blind Willie Johnson - I Know His Blood Can Make Me Whole
TTITLE4=J.B. Hutto and The Hawks - Hip-Shakin'
TTITLE5=Robert Junior Lockwood - Little Boy Blue
TTITLE6=Hop Wilson and His Blues Steel Guitar - Rocking In The Cocanut T
TTITLE6=op
TTITLE7=Black Ace - Your Leg's Too Little
TTITLE8=Joe Carter and His Chicago Broomdusters - I'm Worried
TTITLE9=Tampa Red - Green And Lucky Blues
TTITLE10=Eddie "One String" Jones - John Henry
TTITLE11=Son House - Death Letter (Alternate Take)
TTITLE12=Earl Hooker - Wah Wah Blues
TTITLE13=Johnny Winter - Dallas
TTITLE14=Boyd Gilmore - All In My Dreams
TTITLE15=Chuck Berry - Blues For Hawaiians
EXTD=
EXTT0=
EXTT1=
EXTT2=
EXTT3=
EXTT4=
EXTT5=
EXTT6=
EXTT7=
EXTT8=
EXTT9=
EXTT10=
EXTT11=
EXTT12=
EXTT13=
EXTT14=
EXTT15=
PLAYORDER=
